<svg width="36" height="36" viewBox="0 0 36 36" fill="none" xmlns="http://www.w3.org/2000/svg">
<path fill-rule="evenodd" clip-rule="evenodd" d="M22.771 21.7073H23.956L30.331 28.0973C30.946 28.7123 30.946 29.7023 30.331 30.3173L30.316 30.3323C29.701 30.9473 28.711 30.9473 28.096 30.3323L21.706 23.9573V22.7723L21.301 22.3523C19.201 24.1523 16.336 25.0823 13.291 24.5723C9.12102 23.8673 5.79102 20.3873 5.28102 16.1873C4.51602 9.84234 9.84102 4.50234 16.186 5.28234C20.386 5.79234 23.866 9.12234 24.571 13.2923C25.081 16.3373 24.151 19.2023 22.351 21.3023L22.771 21.7073ZM8.20602 14.9573C8.20602 18.6923 11.221 21.7073 14.956 21.7073C18.691 21.7073 21.706 18.6923 21.706 14.9573C21.706 11.2223 18.691 8.20734 14.956 8.20734C11.221 8.20734 8.20602 11.2223 8.20602 14.9573Z" fill="#DADADA"/>
</svg>
