<svg width="20" height="20" viewBox="0 0 20 20" fill="none" xmlns="http://www.w3.org/2000/svg">
<path fill-rule="evenodd" clip-rule="evenodd" d="M9.9915 1.66666C5.3915 1.66666 1.6665 5.4 1.6665 10C1.6665 14.6 5.3915 18.3333 9.9915 18.3333C14.5998 18.3333 18.3332 14.6 18.3332 10C18.3332 5.4 14.5998 1.66666 9.9915 1.66666ZM9.99984 16.6667C6.3165 16.6667 3.33317 13.6833 3.33317 10C3.33317 6.31666 6.3165 3.33333 9.99984 3.33333C13.6832 3.33333 16.6665 6.31666 16.6665 10C16.6665 13.6833 13.6832 16.6667 9.99984 16.6667ZM9.7665 5.83333H9.8165C10.1498 5.83333 10.4165 6.1 10.4165 6.43333V10.2167L13.6415 12.1333C13.9332 12.3 14.0248 12.675 13.8498 12.9583C13.6832 13.2417 13.3165 13.325 13.0332 13.1583L9.57484 11.0833C9.3165 10.9333 9.1665 10.6583 9.1665 10.3667V6.43333C9.1665 6.1 9.43317 5.83333 9.7665 5.83333Z" fill="#6D7D8B" fill-opacity="0.8"/>
</svg>
