<svg width="20" height="20" viewBox="0 0 20 20" fill="none" xmlns="http://www.w3.org/2000/svg">
<path fill-rule="evenodd" clip-rule="evenodd" d="M6.17425 6.9099L10.7909 2.29323C11.2743 1.80156 12.0576 1.80156 12.5493 2.2849C12.8493 2.5849 12.9743 3.0099 12.8909 3.42656L12.0993 7.24323H16.8076C18.5993 7.24323 19.8076 9.07656 19.1076 10.7266L16.3909 17.0682C16.1243 17.6766 15.5243 18.0766 14.8576 18.0766H7.35758C6.44092 18.0766 5.69092 17.3266 5.69092 16.4099V8.0849C5.69092 7.64323 5.86592 7.21823 6.17425 6.9099ZM4.02425 16.4099C4.02425 17.3266 3.27425 18.0766 2.35759 18.0766C1.44092 18.0766 0.690918 17.3266 0.690918 16.4099V9.74323C0.690918 8.82656 1.44092 8.07656 2.35759 8.07656C3.27425 8.07656 4.02425 8.82656 4.02425 9.74323V16.4099Z" fill="#6D7D8B" fill-opacity="0.8"/>
</svg>
