<svg width="20" height="20" viewBox="0 0 20 20" fill="none" xmlns="http://www.w3.org/2000/svg">
<path fill-rule="evenodd" clip-rule="evenodd" d="M13.8257 13.0901L9.20908 17.7068C8.72575 18.1984 7.94242 18.1984 7.45075 17.7151C7.15075 17.4151 7.02575 16.9901 7.10908 16.5734L7.90075 12.7568L3.19241 12.7568C1.40075 12.7568 0.192415 10.9234 0.892413 9.27344L3.60908 2.93177C3.87575 2.32344 4.47575 1.92344 5.14241 1.92344L12.6424 1.92344C13.5591 1.92344 14.3091 2.67344 14.3091 3.5901L14.3091 11.9151C14.3091 12.3568 14.1341 12.7818 13.8257 13.0901ZM15.9757 3.5901C15.9757 2.67344 16.7257 1.92344 17.6424 1.92344C18.5591 1.92344 19.3091 2.67344 19.3091 3.5901L19.3091 10.2568C19.3091 11.1734 18.5591 11.9234 17.6424 11.9234C16.7257 11.9234 15.9757 11.1734 15.9757 10.2568L15.9757 3.5901Z" fill="#6D7D8B" fill-opacity="0.8"/>
</svg>
