<svg width="26" height="25" viewBox="0 0 26 25" fill="none" xmlns="http://www.w3.org/2000/svg">
<path fill-rule="evenodd" clip-rule="evenodd" d="M13.4969 4.6875C8.28857 4.6875 3.84066 7.92708 2.03857 12.5C3.84066 17.0729 8.28857 20.3125 13.4969 20.3125C18.7052 20.3125 23.1532 17.0729 24.9552 12.5C23.1532 7.92708 18.7052 4.6875 13.4969 4.6875ZM13.4969 17.7083C10.6219 17.7083 8.28857 15.375 8.28857 12.5C8.28857 9.625 10.6219 7.29167 13.4969 7.29167C16.3719 7.29167 18.7052 9.625 18.7052 12.5C18.7052 15.375 16.3719 17.7083 13.4969 17.7083ZM10.3719 12.5C10.3719 10.7708 11.7677 9.375 13.4969 9.375C15.2261 9.375 16.6219 10.7708 16.6219 12.5C16.6219 14.2292 15.2261 15.625 13.4969 15.625C11.7677 15.625 10.3719 14.2292 10.3719 12.5Z" fill="#6D7D8B" fill-opacity="0.8"/>
</svg>
